<?xml version="1.0" encoding="utf-8"?>
<!-- Generator: Adobe Illustrator 23.1.0, SVG Export Plug-In . SVG Version: 6.00 Build 0)  -->
<svg version="1.1" id="Слой_1" xmlns="http://www.w3.org/2000/svg" xmlns:xlink="http://www.w3.org/1999/xlink" x="0px" y="0px"
	 viewBox="0 0 37.7 38.1" style="enable-background:new 0 0 37.7 38.1;" xml:space="preserve">
<style type="text/css">
	.st0{fill-rule:evenodd;clip-rule:evenodd;fill:#80407A;}
</style>
<path id="Dashboard" class="st0" d="M19,0.6C8.8,0.5,0.5,8.7,0.4,18.8C0.3,29,8.5,37.4,18.6,37.5c10.2,0.1,18.5-8.1,18.6-18.2
	c0-0.1,0-0.1,0-0.2C37.3,8.9,29.1,0.7,19,0.6z M31.5,29.1c0-0.2-0.1-0.3-0.3-0.5l-1-1c-0.4-0.4-1.2-0.5-1.6,0c0,0,0,0,0,0
	c-0.4,0.5-0.4,1.2,0,1.6l1,1c0.2,0.2,0.4,0.3,0.6,0.3c-6.2,6.2-16.2,6.2-22.3,0c0,0,0,0,0,0c0.3,0,0.5-0.1,0.7-0.3l1-1
	c0.2-0.2,0.3-0.5,0.3-0.8c0-0.3-0.1-0.6-0.3-0.8c-0.4-0.4-1.2-0.4-1.6,0c0,0,0,0,0,0l-1,1c-0.2,0.2-0.3,0.4-0.3,0.6
	c-2.1-2.6-3.3-5.7-3.5-9h2.2c0.6,0,1.1-0.5,1.1-1.2c0-0.6-0.5-1.1-1.1-1.1H3.1c0.2-3.5,1.6-6.8,3.9-9.4l1,1c0.4,0.4,1.2,0.4,1.6,0
	C10,9,10,8.3,9.6,7.8l-1-1c2.6-2.3,5.9-3.6,9.3-3.9v2.2c0,0.6,0.5,1.2,1.1,1.2c0.6,0,1.2-0.5,1.2-1.1c0,0,0,0,0-0.1V3
	c7.9,0.6,14.2,7,14.8,14.9h-2.2c-0.6,0-1.1,0.5-1.1,1.2c0,0.6,0.5,1.1,1.1,1.1h2.2C34.7,23.4,33.5,26.5,31.5,29.1L31.5,29.1z
	 M26.1,10.2l-5.6,6.8c-0.5-0.2-1-0.3-1.5-0.3c-1.9,0-3.5,1.5-3.5,3.4c0,1.9,1.5,3.5,3.4,3.5c1.9,0,3.5-1.5,3.5-3.4
	c0-0.6-0.1-1.1-0.4-1.6c0,0,0.1,0,0.1-0.1l5.7-6.9c0.4-0.5,0.3-1.2-0.1-1.6C27.2,9.7,26.5,9.7,26.1,10.2
	C26.1,10.2,26.1,10.2,26.1,10.2z M20.1,21.3h-2.3V19h2.3V21.3z"/>
</svg>
