<?xml version="1.0" encoding="utf-8"?>
<!-- Generator: Adobe Illustrator 23.1.0, SVG Export Plug-In . SVG Version: 6.00 Build 0)  -->
<svg version="1.1" id="Слой_1" xmlns="http://www.w3.org/2000/svg" xmlns:xlink="http://www.w3.org/1999/xlink" x="0px" y="0px"
	 viewBox="0 0 37.7 29.7" style="enable-background:new 0 0 37.7 29.7;" xml:space="preserve">
<style type="text/css">
	.st0{fill-rule:evenodd;clip-rule:evenodd;fill:#80407A;}
</style>
<path id="Menu" class="st0" d="M33.2,0.7H4c-1.9,0-3.4,1.5-3.4,3.4v1.1c0,1.9,1.5,3.4,3.4,3.4h29.3c1.9,0,3.4-1.5,3.4-3.4V4.1
	C36.6,2.3,35.1,0.7,33.2,0.7z M34.3,5.2c0,0.6-0.5,1.1-1.1,1.1H4c-0.6,0-1.1-0.5-1.1-1.1V4.1C2.8,3.5,3.3,3,3.9,3c0,0,0,0,0,0h29.3
	c0.6,0,1.1,0.5,1.1,1.1c0,0,0,0,0,0V5.2z M27.6,21.1H4c-1.9,0-3.4,1.5-3.4,3.4v1.1C0.6,27.4,2.1,29,4,29h23.6c1.9,0,3.4-1.5,3.4-3.4
	v-1.1C31,22.6,29.5,21.1,27.6,21.1z M28.7,25.6c0,0.6-0.5,1.1-1.1,1.1c0,0,0,0,0,0H4c-0.6,0-1.1-0.5-1.1-1.1c0,0,0,0,0,0v-1.1
	c0-0.6,0.5-1.1,1.1-1.1h23.6c0.6,0,1.1,0.5,1.1,1.1V25.6z M4,18.8h16.9c1.9,0,3.4-1.5,3.4-3.4v-1.1c0-1.9-1.5-3.4-3.4-3.4H4
	c-1.9,0-3.4,1.5-3.4,3.4v1.1C0.6,17.3,2.1,18.8,4,18.8z M2.8,14.3c0-0.6,0.5-1.1,1.1-1.1c0,0,0,0,0,0h16.9c0.6,0,1.1,0.5,1.1,1.1
	c0,0,0,0,0,0v1.1c0,0.6-0.5,1.1-1.1,1.1H4c-0.6,0-1.1-0.5-1.1-1.1V14.3z"/>
</svg>
