<?xml version="1.0" encoding="utf-8"?>
<!-- Generator: Adobe Illustrator 23.1.0, SVG Export Plug-In . SVG Version: 6.00 Build 0)  -->
<svg version="1.1" id="Слой_1" xmlns="http://www.w3.org/2000/svg" xmlns:xlink="http://www.w3.org/1999/xlink" x="0px" y="0px"
	 viewBox="0 0 37 37.1" style="enable-background:new 0 0 37 37.1;" xml:space="preserve">
<style type="text/css">
	.st0{fill-rule:evenodd;clip-rule:evenodd;fill:#80407A;}
</style>
<path id="Stats" class="st0" d="M31.8,1H5.2C2.7,1,0.8,3,0.8,5.4v26.5c0,2.4,2,4.4,4.4,4.4h26.6c2.5,0,4.4-2,4.4-4.4V5.4
	C36.3,3,34.3,1,31.8,1z M34.1,31.9c0,1.2-1,2.2-2.2,2.2H5.2c-1.2,0-2.2-1-2.2-2.2V5.4c0-1.2,1-2.2,2.2-2.2h26.6c1.2,0,2.2,1,2.2,2.2
	V31.9z M10.7,13.1c-0.6,0-1.1,0.5-1.1,1.1v13.2c0,0.6,0.5,1.1,1.1,1.1c0.6,0,1.1-0.5,1.1-1.1V14.2C11.9,13.6,11.4,13.1,10.7,13.1z
	 M26.3,17.5c-0.6,0-1.1,0.5-1.1,1.1v8.8c0,0.6,0.5,1.1,1.1,1.1c0.6,0,1.1-0.5,1.1-1.1v-8.8C27.4,18,26.9,17.5,26.3,17.5
	C26.3,17.5,26.3,17.5,26.3,17.5L26.3,17.5z M18.5,8.7c-0.6,0-1.1,0.5-1.1,1.1c0,0,0,0,0,0v17.6c0,0.6,0.5,1.1,1.1,1.1
	c0.6,0,1.1-0.5,1.1-1.1V9.8C19.6,9.2,19.1,8.7,18.5,8.7C18.5,8.7,18.5,8.7,18.5,8.7L18.5,8.7z"/>
</svg>
