<?xml version="1.0" encoding="utf-8"?>
<!-- Generator: Adobe Illustrator 23.1.0, SVG Export Plug-In . SVG Version: 6.00 Build 0)  -->
<svg version="1.1" id="Слой_1" xmlns="http://www.w3.org/2000/svg" xmlns:xlink="http://www.w3.org/1999/xlink" x="0px" y="0px"
	 viewBox="0 0 35.3 38.1" style="enable-background:new 0 0 35.3 38.1;" xml:space="preserve">
<style type="text/css">
	.st0{fill-rule:evenodd;clip-rule:evenodd;fill:#80407A;}
</style>
<path id="Timer" class="st0" d="M30.8,7.5c0.1-0.1,0.2-0.3,0.3-0.4l1.5,1.5c0.4,0.4,1.1,0.4,1.6,0c0.4-0.4,0.4-1.2,0-1.6l-4.5-4.5
	c-0.4-0.4-1.1-0.5-1.6,0c0,0,0,0,0,0c-0.4,0.4-0.4,1.2,0,1.6l1.5,1.5c-0.2,0.1-0.3,0.1-0.4,0.3L28.1,7c-2.7-2.2-5.9-3.4-9.4-3.7V2.2
	c0-0.6-0.5-1.1-1.1-1.1c-0.6,0-1.1,0.5-1.1,1.1v1.2C7.2,3.9,0.1,12,0.6,21.3c0.6,9.4,8.6,16.5,18,15.9c9.3-0.6,16.5-8.6,15.9-18
	c-0.2-4-1.9-7.8-4.7-10.7L30.8,7.5z M17.7,35.1C9.5,35.2,2.8,28.7,2.8,20.5C2.7,12.3,9.2,5.6,17.4,5.6c8.2-0.1,14.8,6.5,14.9,14.6
	c0,0,0,0.1,0,0.1C32.3,28.5,25.8,35.1,17.7,35.1z M18.8,17.1V9c0-0.6-0.5-1.1-1.1-1.1c-0.6,0-1.1,0.5-1.1,1.1v8.2
	c-1.8,0.6-2.7,2.6-2.1,4.3c0.6,1.8,2.5,2.7,4.3,2.1c1.8-0.6,2.7-2.6,2.1-4.3C20.5,18.2,19.8,17.5,18.8,17.1L18.8,17.1z M18.8,21.5
	h-2.2v-2.3h2.2V21.5z"/>
</svg>
